<?xml version="1.0" encoding="UTF-8" standalone="no"?>
<!-- Generado por Microsoft Visio, SVG Export gintegrator-logo.svg Page-1 -->

<svg
   width="8.91663in"
   height="3.33395in"
   viewBox="0 0 641.997 240.045"
   xml:space="preserve"
   color-interpolation-filters="sRGB"
   class="st4"
   version="1.1"
   id="svg7"
   sodipodi:docname="gintegrator-logo.svg"
   inkscape:version="1.3.2 (091e20e, 2023-11-25, custom)"
   xmlns:inkscape="http://www.inkscape.org/namespaces/inkscape"
   xmlns:sodipodi="http://sodipodi.sourceforge.net/DTD/sodipodi-0.dtd"
   xmlns="http://www.w3.org/2000/svg"
   xmlns:svg="http://www.w3.org/2000/svg"
   xmlns:v="http://schemas.microsoft.com/visio/2003/SVGExtensions/"><defs
   id="defs7" /><sodipodi:namedview
   id="namedview7"
   pagecolor="#ffffff"
   bordercolor="#000000"
   borderopacity="0.25"
   inkscape:showpageshadow="2"
   inkscape:pageopacity="0.0"
   inkscape:pagecheckerboard="0"
   inkscape:deskcolor="#d1d1d1"
   inkscape:document-units="in"
   inkscape:zoom="1.8735103"
   inkscape:cx="409.92569"
   inkscape:cy="155.85716"
   inkscape:window-width="2880"
   inkscape:window-height="1676"
   inkscape:window-x="-12"
   inkscape:window-y="-12"
   inkscape:window-maximized="1"
   inkscape:current-layer="svg7" />
	<v:documentProperties
   v:langID="3082"
   v:metric="true"
   v:viewMarkup="false">
		<v:userDefs>
			<v:ud
   v:nameU="msvNoAutoConnect"
   v:val="VT0(1):26" />
		</v:userDefs>
	</v:documentProperties>

	<style
   type="text/css"
   id="style1">
	<![CDATA[
		.st1 {fill:#000000;stroke:none;stroke-linecap:butt;stroke-width:9.375}
		.st2 {fill:none;stroke:none;stroke-linecap:round;stroke-linejoin:round;stroke-width:0.75}
		.st3 {fill:#000000;font-family:Shoika-Retina;font-size:6.66666em}
		.st4 {fill:none;fill-rule:evenodd;font-size:12px;overflow:visible;stroke-linecap:square;stroke-miterlimit:3}
	]]>
	</style>

	<g
   v:mID="0"
   v:index="1"
   v:groupContext="foregroundPage"
   id="g7">
		<title
   id="title1">Página-1</title>
		<v:pageProperties
   v:drawingScale="0.0393701"
   v:pageScale="0.0393701"
   v:drawingUnits="24"
   v:shadowOffsetX="9"
   v:shadowOffsetY="-9" />
		<g
   id="group1000-1"
   transform="translate(27.375,-27.375)"
   v:mID="1000"
   v:groupContext="group">
			<title
   id="title2">Hoja.1000</title>
			<g
   id="group1001-2"
   v:mID="1001"
   v:groupContext="group">
				<title
   id="title3">Hoja.1001</title>
				<g
   id="shape1002-3"
   v:mID="1002"
   v:groupContext="shape"
   transform="translate(37.2409,-63.4735)">
					<title
   id="title4">Hoja.1002</title>
					<path
   d="M23.69 199.02 C22.38 197.72 20.28 197.72 18.97 199.02 L1.3 216.69 C0 217.99 0 220.1 1.3 221.41 L18.97          239.07 C19.64 239.74 20.48 240.04 21.35 240.04 C22.22 240.04 23.05 239.71 23.72 239.07 L41.39 221.41          C42.69 220.1 42.69 217.99 41.39 216.69 L23.69 199.02 ZM21.35 231.98 L8.43 219.07 L21.35 206.15 L34.26          219.07 L21.35 231.98 Z"
   class="st1"
   id="path4" />
				</g>
				<g
   id="shape1003-5"
   v:mID="1003"
   v:groupContext="shape"
   transform="translate(33.6607,-11.2091)">
					<title
   id="title5">Hoja.1003</title>
					<path
   d="M23.69 199.02 C22.38 197.72 20.28 197.72 18.97 199.02 L1.3 216.69 C0 217.99 0 220.1 1.3 221.41 L18.97          239.07 C19.64 239.74 20.48 240.04 21.35 240.04 C22.22 240.04 23.05 239.71 23.72 239.07 L41.39 221.41          C42.03 220.77 42.36 219.94 42.36 219.03 C42.36 218.13 41.99 217.29 41.39 216.66 L23.69 199.02 ZM21.31          231.98 L8.4 219.07 L21.31 206.15 L34.23 219.07 L21.31 231.98 Z"
   class="st1"
   id="path5" />
				</g>
				<g
   id="shape1004-7"
   v:mID="1004"
   v:groupContext="shape">
					<title
   id="title6">Hoja.1004</title>
					<path
   d="M96.8 80.81 L50.66 55.18 C49.72 54.64 48.55 54.61 47.58 55.08 C46.61 55.55 45.91 56.48 45.74 57.55 L40.85          88.04 L3.35 88.04 C1.51 88.04 0 89.54 0 91.38 L0 124.91 L0 236.7 C0 238.54 1.51 240.04 3.35 240.04          L84.45 240.04 C86.29 240.04 87.8 238.54 87.8 236.7 L87.8 133.07 L87.8 91.38 C87.8 89.54 86.29 88.04          84.45 88.04 L47.61 88.04 L51.56 63.34 L93.52 86.66 C95.13 87.57 97.17 86.97 98.07 85.36 C98.97 83.72          98.41 81.68 96.8 80.81 ZM6.69 94.73 L39.78 94.73 L34.2 129.63 C34.1 129.66 34 129.66 33.89 129.69          C31.82 130.06 29.71 130.2 27.6 130.1 C27.24 130.06 26.83 130.03 26.47 129.99 C25.8 129.93 25.13          129.86 24.49 129.76 C24.06 129.69 23.66 129.59 23.25 129.53 C22.62 129.39 21.95 129.23 21.31 129.06          C20.95 128.96 20.54 128.86 20.18 128.72 C19.44 128.49 18.74 128.22 18 127.92 C17.73 127.82 17.43          127.72 17.16 127.59 C16.16 127.15 15.19 126.65 14.22 126.08 C12.82 125.24 11.34 124.51 9.84 123.84          C9.4 123.64 8.93 123.47 8.5 123.27 C7.9 123.04 7.33 122.73 6.73 122.53 L6.73 94.73 L6.69 94.73 ZM42.53          180.15 L29.61 193.07 L16.7 180.15 L29.61 167.24 L42.53 180.15 ZM81.11 233.35 L6.69 233.35 L6.69          129.73 C8.03 130.33 9.34 131 10.61 131.73 C10.67 131.77 10.71 131.8 10.77 131.84 C12.05 132.57 13.38          133.24 14.72 133.81 C15.09 133.98 15.49 134.11 15.86 134.28 C16.86 134.68 17.87 135.01 18.87 135.31          C19.31 135.45 19.71 135.58 20.14 135.68 C21.48 136.02 22.82 136.32 24.16 136.49 C24.49 136.52 24.83          136.55 25.16 136.59 C26.23 136.72 27.3 136.79 28.37 136.79 C28.57 136.79 28.81 136.82 29.01 136.82          C29.38 136.82 29.75 136.79 30.11 136.75 C30.72 136.72 31.29 136.72 31.89 136.65 C32.29 136.62 32.69          136.59 33.06 136.55 L29.44 159.14 C28.61 159.17 27.77 159.51 27.17 160.11 L9.54 177.78 C8.23 179.08          8.23 181.19 9.54 182.49 L23.46 196.41 L18.54 227.16 C18.24 229 19.47 230.71 21.31 231.01 C21.55          231.04 21.72 231.04 21.88 231.04 C23.49 231.04 24.93 229.87 25.2 228.23 L29.55 201.13 C29.58 201.13          29.58 201.13 29.61 201.13 C30.48 201.13 31.32 200.8 31.99 200.16 L49.65 182.53 C50.29 181.89 50.62          181.05 50.62 180.15 C50.62 179.25 50.26 178.41 49.65 177.78 L35.57 163.69 L40.15 134.95 C41.22 134.58          42.29 134.14 43.26 133.68 C44.8 132.94 46.38 132.34 47.98 131.84 C48.48 131.67 49.02 131.57 49.55          131.43 C50.66 131.13 51.76 130.8 52.9 130.6 C53.5 130.5 54.07 130.43 54.67 130.36 C55.74 130.2 56.81          130.03 57.92 129.96 C58.52 129.93 59.09 129.93 59.69 129.93 C60.8 129.89 61.87 129.86 62.97 129.93          C63.57 129.96 64.14 130.03 64.75 130.1 C65.82 130.2 66.92 130.3 67.99 130.46 C68.59 130.56 69.16          130.7 69.73 130.83 C70.77 131.07 71.84 131.3 72.88 131.6 C73.48 131.77 74.08 132 74.68 132.2 C75.65          132.54 76.62 132.87 77.56 133.31 C78.2 133.57 78.83 133.91 79.47 134.21 C80.04 134.51 80.61 134.81          81.17 135.11 L81.17 233.35 L81.11 233.35 ZM81.11 94.73 L81.11 127.49 C81.01 127.45 80.91 127.42          80.81 127.38 C79.37 126.75 77.93 126.18 76.46 125.68 C76.26 125.61 76.05 125.54 75.89 125.48 C71.07          123.91 66.02 123.07 60.9 123.07 C54.1 123.07 47.58 124.51 41.36 127.25 L46.54 94.73 L81.11 94.73          Z"
   class="st1"
   id="path6" />
				</g>
			</g>
		</g>
		<g
   id="shape1005-9"
   v:mID="1005"
   v:groupContext="shape"
   transform="translate(147.609,-53.8583)">
			<title
   id="title7">Hoja.1005</title>
			<desc
   id="desc7">gIntegrator</desc>
			<v:textBlock
   v:margins="rect(4,4,4,4)"
   v:tabSpace="42.5197" />
			<v:textRect
   cx="238.006"
   cy="181.934"
   width="476.02"
   height="116.22" />
			<path
   id="rect7"
   class="st2"
   style="stroke-width:0.75;stroke-linecap:round;stroke-linejoin:round"
   d="m 0,123.824 h 476.013 v 116.22 H 0 Z" />
			<path
   d="m 12.719991,167.77003 q 5.839994,-6.07999 15.519984,-6.07999 9.919989,0 15.759983,7.35999 v -6.95999 H 51.75995 V 199.85 q 0,22.55998 -22.959976,22.55998 -5.919994,0 -11.119988,-1.76 -5.199995,-1.68 -8.3999915,-4.72 l 3.9199955,-6.31999 q 2.719997,2.64 6.799993,4.07999 4.159996,1.52 8.559991,1.52 7.679992,0 11.359988,-3.51999 3.679996,-3.52 3.679996,-10.87999 v -1.2 q -5.679994,6.79999 -15.359983,6.79999 -9.67999,0 -15.519984,-6.07999 -5.839994,-6.15999 -5.839994,-16.31998 0,-10.07999 5.839994,-16.23999 z M 18.959984,195.13 q 3.919996,4.16 10.639989,4.16 6.639993,0 10.639989,-4.16 3.999996,-4.15999 3.999996,-11.11998 0,-6.96 -3.999996,-11.03999 -3.919996,-4.16 -10.639989,-4.16 -6.719993,0 -10.719989,4.08 -3.919995,4.07999 -3.919995,11.11999 0,7.03999 3.999995,11.11998 z m 45.439893,10.79999 v -59.43993 h 8.319991 v 59.43993 z m 20.959972,0 v -43.83995 h 7.679992 v 7.35999 q 4.959995,-7.75999 15.359989,-7.75999 8.23999,0 13.03998,5.35999 4.8,5.28 4.8,14.39999 v 24.47997 h -8 v -22.87997 q 0,-6.8 -3.03999,-10.39999 -2.96,-3.68 -8.63999,-3.68 -6.24,0 -9.759993,3.84 -3.439996,3.75999 -3.439996,10.55999 v 22.55997 z m 46.639881,-37.19996 v -6.63999 h 7.43999 v -10.23999 l 8.07999,-0.8 v 11.03999 h 14.23999 v 6.63999 h -14.23999 v 24.79998 q 0,3.19999 1.68,4.63999 1.76,1.44 5.67999,1.44 3.28,0 6.88,-0.96 v 6.39999 q -4.08,1.36 -8.32,1.36 -6.71999,0 -10.39998,-3.19999 -3.6,-3.28 -3.6,-9.27999 v -25.19998 z m 35.11997,15.27999 q 0,-9.83999 6.15999,-16.07999 6.15999,-6.23999 15.75998,-6.23999 9.59999,0 15.67999,6.31999 6.07999,6.24 6.07999,16.23999 0,1.35999 -0.16,2.55999 h -35.43996 q 0.72,5.68 4.71999,9.11999 4.08,3.36 10.15999,3.36 8.23999,0 13.27999,-5.19999 l 4.47999,5.11999 q -6.07999,7.19999 -17.99998,7.19999 -10.39999,0 -16.55998,-5.99999 -6.15999,-6.08 -6.15999,-16.39998 z m 8.07999,-3.12 h 27.83997 q -0.64,-5.52 -4.48,-8.95999 -3.75999,-3.44 -9.51999,-3.44 -5.59999,0 -9.43999,3.44 -3.75999,3.35999 -4.39999,8.95999 z m 46.71992,-13.11999 q 5.83999,-6.07999 15.51998,-6.07999 9.91999,0 15.75998,7.35999 v -6.95999 h 7.76 V 199.85 q 0,22.55998 -22.95998,22.55998 -5.91999,0 -11.11999,-1.76 -5.19999,-1.68 -8.39999,-4.72 l 3.92,-6.31999 q 2.71999,2.64 6.79999,4.07999 4.15999,1.52 8.55999,1.52 7.67999,0 11.35999,-3.51999 3.67999,-3.52 3.67999,-10.87999 v -1.2 q -5.67999,6.79999 -15.35998,6.79999 -9.67999,0 -15.51998,-6.07999 -5.84,-6.15999 -5.84,-16.31998 0,-10.07999 5.84,-16.23999 z M 228.1596,195.13 q 3.92,4.16 10.63999,4.16 6.63999,0 10.63999,-4.16 3.99999,-4.15999 3.99999,-11.11998 0,-6.96 -3.99999,-11.03999 -3.92,-4.16 -10.63999,-4.16 -6.71999,0 -10.71999,4.08 -3.92,4.07999 -3.92,11.11999 0,7.03999 4,11.11998 z m 51.83988,-32.95996 v 8.39999 q 2.08,-4.24 6.24,-6.55999 4.15999,-2.32 9.67999,-2.32 v 7.75999 h -1.92 q -13.67999,0 -13.67999,14.79999 v 21.67997 h -7.99999 v -43.75995 z m 28.23998,20.23998 q 3.99999,-1.28 16.95998,-2.8 2.55999,-0.32 3.43999,-1.04 0.96,-0.72 0.96,-2.56 0,-3.43999 -2.63999,-5.35999 -2.56,-1.92 -7.04,-1.92 -7.59999,0 -12.07998,6.16 l -5.6,-4.32 q 2.88,-4.24 7.51999,-6.55999 4.64,-2.32 10.23999,-2.32 8.39999,0 13.03999,4.47999 4.71999,4.4 4.71999,12.39999 v 27.35997 h -7.75999 V 200.01 q -4.15999,6.39999 -14.31998,6.39999 -7.75999,0 -11.99999,-3.35999 -4.16,-3.44 -4.16,-9.27999 0,-8.88 8.72,-11.35999 z m -0.72,10.95999 q 0,3.27999 2.31999,5.03999 2.4,1.76 6.8,1.76 12.95998,0 12.95998,-13.43999 v -2.15999 q -3.83999,0.71999 -11.11999,1.59999 -5.51999,0.64 -7.35999,1.52 -3.59999,1.6 -3.59999,5.68 z m 35.91986,-24.63998 v -6.63999 h 7.43999 v -10.23999 l 8.07999,-0.8 v 11.03999 h 14.23999 v 6.63999 H 358.9593 v 24.79998 q 0,3.19999 1.68,4.63999 1.76,1.44 5.67999,1.44 3.28,0 6.88,-0.96 v 6.39999 q -4.08,1.36 -8.32,1.36 -6.71999,0 -10.39998,-3.19999 -3.6,-3.28 -3.6,-9.27999 v -25.19998 z m 41.59996,-0.72 q 6.39999,-6.31999 16.31998,-6.31999 9.83999,0 16.31999,6.31999 6.47999,6.32 6.47999,15.99999 0,9.67999 -6.47999,16.07998 -6.48,6.31999 -16.31999,6.31999 -9.91999,0 -16.39998,-6.31999 -6.39999,-6.31999 -6.39999,-16.07998 0,-9.67999 6.47999,-15.99999 z m 1.6,15.99999 q 0,6.63999 4.23999,10.95998 4.16,4.32 10.47999,4.32 6.32,0 10.39999,-4.32 4.16,-4.31999 4.16,-10.95998 0,-6.64 -4.16,-10.87999 -4.07999,-4.32 -10.39999,-4.32 -6.39999,0 -10.55999,4.32 -4.15999,4.31999 -4.15999,10.87999 z m 53.68,-21.83998 v 8.39999 q 2.07999,-4.24 6.23999,-6.55999 4.15999,-2.32 9.67999,-2.32 v 7.75999 h -1.92 q -13.67998,0 -13.67998,14.79999 v 21.67997 h -8 v -43.75995 z"
   id="text7"
   class="st3"
   style="font-size:533.332px;font-family:Shoika-Retina;fill:#000000"
   aria-label="gIntegrator" />		</g>
	</g>
</svg>
