<svg viewBox="0 0 395.52 104.04555197644432" height="104.04555197644432" width="395.52"><g><svg viewBox="0 0 571.8164541721018 150.42212430104547" height="104.04555197644432" width="395.52"><g transform="matrix(1,0,0,1,176.2964541721018,20.789164791244346)"><svg viewBox="0 0 395.52 108.84379471855678" height="108.84379471855678" width="395.52"><g id="textblocktransform"><svg viewBox="0 0 395.52 108.84379471855678" height="108.84379471855678" width="395.52" id="textblock"><g><svg viewBox="0 0 395.52 71.91272727272727" height="71.91272727272727" width="395.52"><g transform="matrix(1,0,0,1,0,0)"><svg width="395.52" viewBox="1.7000000476837158 -34.099998474121094 242.52999877929688 44.099998474121094" height="71.91272727272727" data-palette-color="#636365"><g class="wordmark-text-0" data-fill-palette-color="primary" id="text-0"><path d="M21.5-23.4L24.9-23.4 24.9-0.9Q24.9 2.25 23.6 4.73 22.3 7.2 19.95 8.6 17.6 10 14.6 10L14.6 10 4.9 10 4.9 6.9 14.6 6.9Q17.65 6.9 19.58 4.7 21.5 2.5 21.5-0.9L21.5-0.9 21.5-3.45Q20.05-1.45 17.95-0.33 15.85 0.8 13.35 0.8L13.35 0.8Q10 0.8 7.35-0.8 4.7-2.4 3.2-5.25 1.7-8.1 1.7-11.75L1.7-11.75Q1.7-15.35 3.18-18.18 4.65-21 7.28-22.6 9.9-24.2 13.25-24.2L13.25-24.2Q15.8-24.2 17.93-23.08 20.05-21.95 21.5-19.9L21.5-19.9 21.5-23.4ZM13.25-2.3Q15.65-2.3 17.53-3.5 19.4-4.7 20.45-6.85 21.5-9 21.5-11.7L21.5-11.7Q21.5-14.4 20.45-16.55 19.4-18.7 17.53-19.9 15.65-21.1 13.25-21.1L13.25-21.1Q10.9-21.1 9.05-19.9 7.2-18.7 6.15-16.57 5.1-14.45 5.1-11.75L5.1-11.75Q5.1-9 6.15-6.85 7.2-4.7 9.05-3.5 10.9-2.3 13.25-2.3L13.25-2.3ZM36.45 0L33.05 0 33.05-23.4 36.45-23.4 36.45 0ZM34.75-27.95Q33.6-27.95 32.82-28.75 32.05-29.55 32.05-30.7L32.05-30.7Q32.05-31.8 32.82-32.58 33.6-33.35 34.75-33.35L34.75-33.35Q35.85-33.35 36.65-32.58 37.45-31.8 37.45-30.65L37.45-30.65Q37.45-29.55 36.65-28.75 35.85-27.95 34.75-27.95L34.75-27.95ZM55.75-24.2Q58.2-24.2 60.27-23.2 62.34-22.2 63.57-20.25 64.8-18.3 64.8-15.65L64.8-15.65 64.8 0 61.4 0 61.4-14.15Q61.4-21.1 55.2-21.1L55.2-21.1Q51.59-21.1 49.8-18.55 48-16 48-11.7L48-11.7 48 0 44.59 0 44.59-23.4 48-23.4 48-19.5Q49.2-21.75 51.17-22.98 53.15-24.2 55.75-24.2L55.75-24.2ZM96.34-24.2Q99.59-24.2 101.74-21.93 103.89-19.65 103.89-15.65L103.89-15.65 103.89 0 100.49 0 100.49-14.15Q100.49-17.85 99.09-19.48 97.69-21.1 95.44-21.1L95.44-21.1Q92.69-21.1 91.17-18.98 89.64-16.85 89.39-13.2L89.39-13.2 89.39 0 85.99 0 85.99-14.15Q85.99-17.85 84.59-19.48 83.19-21.1 80.94-21.1L80.94-21.1Q77.89-21.1 76.37-18.55 74.84-16 74.84-11.7L74.84-11.7 74.84 0 71.44 0 71.44-23.4 74.84-23.4 74.84-19.75Q75.99-21.9 77.77-23.05 79.54-24.2 81.84-24.2L81.84-24.2Q84.39-24.2 86.29-22.83 88.19-21.45 88.94-18.9L88.94-18.9Q90.04-21.4 91.94-22.8 93.84-24.2 96.34-24.2L96.34-24.2ZM128.29-23.4L131.69-23.4 131.69 0 128.29 0 128.29-3.45Q126.84-1.45 124.74-0.33 122.64 0.8 120.14 0.8L120.14 0.8Q116.79 0.8 114.14-0.8 111.49-2.4 109.99-5.25 108.49-8.1 108.49-11.75L108.49-11.75Q108.49-15.35 109.97-18.18 111.44-21 114.07-22.6 116.69-24.2 120.04-24.2L120.04-24.2Q122.59-24.2 124.72-23.08 126.84-21.95 128.29-19.9L128.29-19.9 128.29-23.4ZM120.04-2.3Q122.44-2.3 124.32-3.5 126.19-4.7 127.24-6.85 128.29-9 128.29-11.7L128.29-11.7Q128.29-14.4 127.24-16.55 126.19-18.7 124.32-19.9 122.44-21.1 120.04-21.1L120.04-21.1Q117.69-21.1 115.84-19.9 113.99-18.7 112.94-16.57 111.89-14.45 111.89-11.75L111.89-11.75Q111.89-9 112.94-6.85 113.99-4.7 115.84-3.5 117.69-2.3 120.04-2.3L120.04-2.3ZM149.59-24.2Q152.94-24.2 155.59-22.6 158.24-21 159.74-18.15 161.24-15.3 161.24-11.65L161.24-11.65Q161.24-8.05 159.76-5.23 158.29-2.4 155.66-0.8 153.04 0.8 149.69 0.8L149.69 0.8Q147.14 0.8 145.01-0.33 142.89-1.45 141.44-3.5L141.44-3.5 141.44 10 138.04 10 138.04-23.4 141.44-23.4 141.44-19.95Q142.89-21.95 144.99-23.08 147.09-24.2 149.59-24.2L149.59-24.2ZM149.69-2.3Q152.04-2.3 153.89-3.5 155.74-4.7 156.79-6.83 157.84-8.95 157.84-11.65L157.84-11.65Q157.84-14.4 156.79-16.55 155.74-18.7 153.89-19.9 152.04-21.1 149.69-21.1L149.69-21.1Q147.29-21.1 145.41-19.9 143.54-18.7 142.49-16.55 141.44-14.4 141.44-11.7L141.44-11.7Q141.44-9 142.49-6.85 143.54-4.7 145.41-3.5 147.29-2.3 149.69-2.3L149.69-2.3ZM177.64-24.2Q180.99-24.2 183.64-22.6 186.29-21 187.79-18.15 189.29-15.3 189.29-11.65L189.29-11.65Q189.29-8.05 187.81-5.23 186.34-2.4 183.71-0.8 181.09 0.8 177.74 0.8L177.74 0.8Q175.19 0.8 173.06-0.33 170.94-1.45 169.49-3.5L169.49-3.5 169.49 10 166.09 10 166.09-23.4 169.49-23.4 169.49-19.95Q170.94-21.95 173.04-23.08 175.14-24.2 177.64-24.2L177.64-24.2ZM177.74-2.3Q180.09-2.3 181.94-3.5 183.79-4.7 184.84-6.83 185.89-8.95 185.89-11.65L185.89-11.65Q185.89-14.4 184.84-16.55 183.79-18.7 181.94-19.9 180.09-21.1 177.74-21.1L177.74-21.1Q175.34-21.1 173.46-19.9 171.59-18.7 170.54-16.55 169.49-14.4 169.49-11.7L169.49-11.7Q169.49-9 170.54-6.85 171.59-4.7 173.46-3.5 175.34-2.3 177.74-2.3L177.74-2.3ZM204.18-24.2Q207.33-24.2 209.88-22.65 212.43-21.1 213.88-18.43 215.33-15.75 215.33-12.45L215.33-12.45Q215.33-11.5 215.28-11L215.28-11 196.03-11Q196.23-7.4 198.38-4.85 200.53-2.3 204.23-2.3L204.23-2.3Q207.23-2.3 209.21-3.43 211.18-4.55 212.38-6.55L212.38-6.55 215.08-4.75Q213.43-2.15 210.73-0.68 208.03 0.8 204.33 0.8L204.33 0.8Q200.93 0.8 198.28-0.8 195.63-2.4 194.13-5.25 192.63-8.1 192.63-11.7L192.63-11.7Q192.63-15.3 194.11-18.15 195.58-21 198.21-22.6 200.83-24.2 204.18-24.2L204.18-24.2ZM196.23-13.8L211.93-13.8Q211.43-17.45 209.48-19.28 207.53-21.1 204.18-21.1L204.18-21.1Q200.93-21.1 198.86-19.03 196.78-16.95 196.23-13.8L196.23-13.8ZM244.23 0L240.28 0 231.63-15.05 224.88-15.05 224.88 0 221.13 0 221.13-34.1 232.53-34.1Q235.63-34.1 237.98-32.9 240.33-31.7 241.58-29.53 242.83-27.35 242.83-24.55L242.83-24.55Q242.83-21.15 240.78-18.73 238.73-16.3 235.33-15.45L235.33-15.45 244.23 0ZM224.88-31L224.88-18.15 232.03-18.15Q235.33-18.15 237.11-19.9 238.88-21.65 238.88-24.55L238.88-24.55Q238.88-27.45 237.11-29.23 235.33-31 232.03-31L232.03-31 224.88-31Z" fill="#636365" data-fill-palette-color="primary"></path></g></svg></g></svg></g><g transform="matrix(1,0,0,1,0,88.88959627636363)"><svg viewBox="0 0 395.52 19.954198442193146" height="19.954198442193146" width="395.52"><g transform="matrix(1,0,0,1,0,0)"><svg width="395.52" viewBox="1.850000023841858 -38.04999923706055 982.050048828125 49.54999923706055" height="19.954198442193146" data-palette-color="#636365"><path d="M24.35-22.2L24.35-22.2 24.3-13.75Q24.3-6.35 20.78-2.8 17.25 0.75 12.23 0.75 7.2 0.75 4.5-2.15L4.5-2.15Q1.85-5.1 1.85-8.72 1.85-12.35 4.15-14.63 6.45-16.9 9.45-16.9 12.45-16.9 14.2-15 15.95-13.1 15.95-10.35 15.95-7.6 14.1-6.35L14.1-6.35Q13.5-6 13.1-6L13.1-6Q12.35-6 12.45-6.75L12.45-6.75Q12.45-6.8 12.6-7.3L12.6-7.3Q12.9-8.7 12.9-10 12.9-11.3 11.85-12.43 10.8-13.55 9.2-13.55 7.6-13.55 6.53-12.28 5.45-11 5.45-8.83 5.45-6.65 7.05-4.65L7.05-4.65Q8.7-2.75 11.85-2.75L11.85-2.75Q16-2.75 18.35-5.53 20.7-8.3 20.7-13.3L20.7-13.3 20.75-22.2Q20.75-29.15 20.65-33.55L20.65-33.55Q17.7-33.1 15.7-33.1L15.7-33.1Q4.9-33.1 4.9-36.25L4.9-36.25Q4.9-38 6.8-38L6.8-38Q7.05-38 10.08-37.38 13.1-36.75 15.7-36.75 18.3-36.75 21.88-37.38 25.45-38 25.8-38L25.8-38Q27.9-38 27.9-36.33 27.9-34.65 24.45-34.05L24.45-34.05Q24.35-29.35 24.35-22.2ZM54.35-15.75L54.35-15.75 54.1-7.9 54.1-5.75Q54.2-3.7 55.1-3.3L55.1-3.3Q55.45-3.2 55.9-3.13 56.35-3.05 56.52-2.95 56.7-2.85 56.7-2.55L56.7-2.55Q56.7-1.25 55.87-0.38 55.05 0.5 53.95 0.5L53.95 0.5Q52.1 0.5 51.35-0.95 50.6-2.4 50.6-5.4L50.6-5.4 50.8-14.6Q50.8-18.05 49.32-20.13 47.85-22.2 45.3-22.2 42.75-22.2 40.37-19.38 38-16.55 37-12.9L37-12.9 37.15-2.05Q37.15 0.5 35.25 0.5L35.25 0.5Q32.95 0.5 32.95-2.93 32.95-6.35 33.95-12.9L33.95-12.9Q33.95-15 33.52-18.8 33.1-22.6 33.1-23.4 33.1-24.2 33.65-24.85 34.2-25.5 35.05-25.5 35.9-25.5 36.45-24.85 37-24.2 37-23.45 37-22.7 36.97-21.2 36.95-19.7 36.95-19.15L36.95-19.15Q40.6-25.5 45.95-25.5L45.95-25.5Q49.95-25.5 52.15-22.63 54.35-19.75 54.35-15.75ZM71.34-21.85L71.34-21.85 67.2-21.95 67.09-10.1Q67.09-5.5 67.45-4.13 67.8-2.75 69.45-2.75L69.45-2.75Q70.25-2.75 71.34-3.28 72.45-3.8 72.7-3.8L72.7-3.8Q73.75-3.8 73.75-2.75 73.75-1.7 71.9-0.6 70.05 0.5 68.25 0.5L68.25 0.5Q63.9 0.5 63.9-5.9L63.9-5.9 63.84-21.95Q62.2-21.8 61.55-21.8L61.55-21.8Q59.05-21.8 59.05-23.45 59.05-25.1 61.55-25.1L61.55-25.1 63.75-25 63.65-30.6Q63.65-33.1 65.55-33.1 67.45-33.1 67.45-30.6L67.45-30.6 67.3-24.95 71.34-25.15Q73.84-25.15 73.84-23.45L73.84-23.45Q73.84-21.85 71.34-21.85ZM90.19-22.5L90.19-22.5Q86.89-22.5 84.67-20.03 82.44-17.55 81.74-14.25L81.74-14.25Q84.44-13.45 87.82-13.45 91.19-13.45 93.24-14.6 95.29-15.75 95.29-17.75 95.29-19.75 93.92-21.13 92.54-22.5 90.19-22.5ZM88.04-10.3L88.04-10.3Q85.44-10.3 81.69-11.05L81.69-11.05Q81.99-7.5 84.32-5 86.64-2.5 89.74-2.5 92.84-2.5 94.84-4.03 96.84-5.55 97.47-5.55 98.09-5.55 98.47-5.18 98.84-4.8 98.84-4.25L98.84-4.25Q98.84-2.85 95.97-1.05 93.09 0.75 89.74 0.75L89.74 0.75Q84.54 0.75 81.47-2.93 78.39-6.6 78.19-11.7L78.19-11.7Q75.54-12.55 75.54-14.3L75.54-14.3Q75.54-15.45 76.39-15.8L76.39-15.8Q76.69-15.9 77.17-15.9 77.64-15.9 78.49-15.45L78.49-15.45Q79.64-20 82.67-22.88 85.69-25.75 89.77-25.75 93.84-25.75 96.34-23.5 98.84-21.25 98.84-17.63 98.84-14 95.74-12.15 92.64-10.3 88.04-10.3ZM121.69-11.7L121.69-11.7 121.69-19.35Q118.94-22.25 115.62-22.25 112.29-22.25 109.82-19.3 107.34-16.35 107.34-12.23 107.34-8.1 108.92-5.43 110.49-2.75 113.19-2.75 115.89-2.75 118.17-5.28 120.44-7.8 121.69-11.7ZM121.59-23.15L121.59-23.15Q121.69-25.5 123.49-25.5L123.49-25.5Q125.79-25.5 125.79-22.08 125.79-18.65 124.79-12.1L124.79-12.1Q125.39-6 125.39-3L125.39-3Q125.39 3.5 122.29 7.5 119.19 11.5 113.69 11.5L113.69 11.5Q110.69 11.5 107.89 10.23 105.09 8.95 105.09 7.68 105.09 6.4 106.24 6.4L106.24 6.4Q106.69 6.4 108.79 7.33 110.89 8.25 113.69 8.25L113.69 8.25Q117.69 8.25 119.99 5.28 122.29 2.3 122.29-2.5L122.29-2.5Q122.29-4.25 122.04-6.1L122.04-6.1Q120.89-3.4 118.44-1.45 115.99 0.5 113.34 0.5L113.34 0.5Q108.54 0.5 105.89-3.65L105.89-3.65Q103.64-7.4 103.64-12.4 103.64-17.4 106.99-21.45 110.34-25.5 115.34-25.5L115.34-25.5Q118.79-25.5 121.59-23.15ZM136.64-11.45L136.64-11.45 136.79-2.05Q136.79 0.5 134.89 0.5L134.89 0.5Q132.59 0.5 132.59-2.93 132.59-6.35 133.59-12.9L133.59-12.9Q133.59-15 133.16-18.78 132.74-22.55 132.74-23.35 132.74-24.15 133.29-24.83 133.84-25.5 134.69-25.5 135.54-25.5 136.09-24.83 136.64-24.15 136.64-23.45 136.64-22.75 136.61-21.2 136.59-19.65 136.59-19.05L136.59-19.05Q137.54-21.55 139.69-23.55L139.69-23.55Q141.89-25.5 144.06-25.5 146.24-25.5 147.51-24.63 148.79-23.75 148.79-22.65 148.79-21.55 148.24-20.95 147.69-20.35 146.81-20.35 145.94-20.35 144.89-21.25L144.89-21.25Q143.94-22.2 143.29-22.2L143.29-22.2Q141.64-22.2 139.44-18.63 137.24-15.05 136.64-11.45ZM172.39-12.1L172.39-12.1Q172.39-8.45 172.91-6.03 173.44-3.6 174.24-3.3L174.24-3.3Q174.54-3.15 174.96-3.1 175.39-3.05 175.56-2.95 175.74-2.85 175.74-2.55L175.74-2.55Q175.74-1.15 174.99-0.33 174.24 0.5 172.81 0.5 171.39 0.5 170.59-1.33 169.79-3.15 169.79-6.1L169.79-6.1Q168.44-3.2 166.04-1.35 163.64 0.5 160.61 0.5 157.59 0.5 155.44-1.5L155.44-1.5Q151.44-5.2 151.44-11.95L151.44-11.95Q151.44-17.4 154.59-21.45 157.74-25.5 162.69-25.5L162.69-25.5Q166.44-25.5 169.19-22.95L169.19-22.95Q169.19-25.5 171.09-25.5L171.09-25.5Q173.39-25.5 173.39-22.08 173.39-18.65 172.39-12.1ZM169.49-11.65L169.49-11.65 169.24-19.35Q166.29-22.25 162.99-22.25 159.69-22.25 157.34-19.3 154.99-16.35 154.99-12.18 154.99-8 156.54-5.38 158.09-2.75 160.84-2.75 163.59-2.75 165.91-5.2 168.24-7.65 169.49-11.65ZM190.88-21.85L190.88-21.85 186.73-21.95 186.63-10.1Q186.63-5.5 186.98-4.13 187.33-2.75 188.98-2.75L188.98-2.75Q189.78-2.75 190.88-3.28 191.98-3.8 192.23-3.8L192.23-3.8Q193.28-3.8 193.28-2.75 193.28-1.7 191.43-0.6 189.58 0.5 187.78 0.5L187.78 0.5Q183.43 0.5 183.43-5.9L183.43-5.9 183.38-21.95Q181.73-21.8 181.08-21.8L181.08-21.8Q178.58-21.8 178.58-23.45 178.58-25.1 181.08-25.1L181.08-25.1 183.28-25 183.18-30.6Q183.18-33.1 185.08-33.1 186.98-33.1 186.98-30.6L186.98-30.6 186.83-24.95 190.88-25.15Q193.38-25.15 193.38-23.45L193.38-23.45Q193.38-21.85 190.88-21.85ZM209.73-22.5L209.73-22.5Q206.43-22.5 204.21-20.03 201.98-17.55 201.28-14.25L201.28-14.25Q203.98-13.45 207.36-13.45 210.73-13.45 212.78-14.6 214.83-15.75 214.83-17.75 214.83-19.75 213.46-21.13 212.08-22.5 209.73-22.5ZM207.58-10.3L207.58-10.3Q204.98-10.3 201.23-11.05L201.23-11.05Q201.53-7.5 203.86-5 206.18-2.5 209.28-2.5 212.38-2.5 214.38-4.03 216.38-5.55 217.01-5.55 217.63-5.55 218.01-5.18 218.38-4.8 218.38-4.25L218.38-4.25Q218.38-2.85 215.51-1.05 212.63 0.75 209.28 0.75L209.28 0.75Q204.08 0.75 201.01-2.93 197.93-6.6 197.73-11.7L197.73-11.7Q195.08-12.55 195.08-14.3L195.08-14.3Q195.08-15.45 195.93-15.8L195.93-15.8Q196.23-15.9 196.71-15.9 197.18-15.9 198.03-15.45L198.03-15.45Q199.18-20 202.21-22.88 205.23-25.75 209.31-25.75 213.38-25.75 215.88-23.5 218.38-21.25 218.38-17.63 218.38-14 215.28-12.15 212.18-10.3 207.58-10.3ZM253.68-12.1L253.68-12.1 253.53-22.95Q253.53-25.5 255.43-25.5L255.43-25.5Q257.73-25.5 257.73-21.75L257.73-21.75Q257.73-18.8 256.68-12.1L256.68-12.1Q257.28-6 257.28-3L257.28-3Q257.28 3.55 254.05 7.53 250.83 11.5 245.08 11.5L245.08 11.5Q242.08 11.5 239.28 10.23 236.48 8.95 236.48 7.68 236.48 6.4 237.63 6.4L237.63 6.4Q238.13 6.4 240.38 7.33 242.63 8.25 245.08 8.25L245.08 8.25Q249.23 8.25 251.7 5.28 254.18 2.3 254.18-2.5L254.18-2.5Q254.18-4.25 254.03-5.9L254.03-5.9Q250.33 0.5 244.73 0.5L244.73 0.5Q240.73 0.5 238.53-2.45L238.53-2.45Q236.33-5.5 236.33-9.75L236.33-9.75 236.63-17.3Q236.63-18.85 236.23-21.03 235.83-23.2 235.83-23.75 235.83-24.3 236.45-24.9 237.08-25.5 237.98-25.5L237.98-25.5Q240.28-25.5 240.28-21.4L240.28-21.4 239.88-10.4Q239.88-6.95 241.35-4.85 242.83-2.75 245.38-2.75 247.93-2.75 250.33-5.6L250.33-5.6Q252.68-8.5 253.68-12.1ZM266.97-12.45Q266.97-8.3 269.27-5.4 271.57-2.5 275.05-2.5 278.52-2.5 280.95-5.43 283.37-8.35 283.37-12.5 283.37-16.65 281.05-19.58 278.72-22.5 275.3-22.5 271.87-22.5 269.37-19.55L269.37-19.55Q266.97-16.6 266.97-12.45ZM266.72-3.08Q263.42-6.9 263.42-12.45 263.42-18 266.77-21.88 270.12-25.75 275.22-25.75 280.32-25.75 283.62-21.93 286.92-18.1 286.92-12.53 286.92-6.95 283.55-3.1 280.17 0.75 275.1 0.75 270.02 0.75 266.72-3.08ZM296.77-21.4L296.77-21.4 296.37-10.4Q296.37-6.95 297.85-4.85 299.32-2.75 301.87-2.75 304.42-2.75 306.82-5.6L306.82-5.6Q309.17-8.5 310.17-12.1L310.17-12.1 310.02-22.95Q310.02-25.5 311.92-25.5L311.92-25.5Q314.22-25.5 314.22-22.08 314.22-18.65 313.22-12.1L313.22-12.1Q313.22-8.45 313.75-6.03 314.27-3.6 315.07-3.3L315.07-3.3Q315.37-3.15 315.8-3.1 316.22-3.05 316.4-2.95 316.57-2.85 316.57-2.55L316.57-2.55Q316.57-1.2 315.75-0.35 314.92 0.5 313.67 0.5L313.67 0.5Q310.52 0.5 310.52-5.9L310.52-5.9Q306.82 0.5 301.22 0.5L301.22 0.5Q297.22 0.5 295.02-2.45L295.02-2.45Q292.82-5.5 292.82-9.75L292.82-9.75 293.12-17.3Q293.12-18.85 292.72-21.03 292.32-23.2 292.32-23.75 292.32-24.3 292.95-24.9 293.57-25.5 294.47-25.5L294.47-25.5Q296.77-25.5 296.77-21.4ZM325.87-11.45L325.87-11.45 326.02-2.05Q326.02 0.5 324.12 0.5L324.12 0.5Q321.82 0.5 321.82-2.93 321.82-6.35 322.82-12.9L322.82-12.9Q322.82-15 322.39-18.78 321.97-22.55 321.97-23.35 321.97-24.15 322.52-24.83 323.07-25.5 323.92-25.5 324.77-25.5 325.32-24.83 325.87-24.15 325.87-23.45 325.87-22.75 325.84-21.2 325.82-19.65 325.82-19.05L325.82-19.05Q326.77-21.55 328.92-23.55L328.92-23.55Q331.12-25.5 333.29-25.5 335.47-25.5 336.74-24.63 338.02-23.75 338.02-22.65 338.02-21.55 337.47-20.95 336.92-20.35 336.04-20.35 335.17-20.35 334.12-21.25L334.12-21.25Q333.17-22.2 332.52-22.2L332.52-22.2Q330.87-22.2 328.67-18.63 326.47-15.05 325.87-11.45ZM371.11-11.7L371.11-11.7 371.11-19.35Q368.36-22.25 365.04-22.25 361.71-22.25 359.24-19.3 356.76-16.35 356.76-12.23 356.76-8.1 358.34-5.43 359.91-2.75 362.61-2.75 365.31-2.75 367.59-5.28 369.86-7.8 371.11-11.7ZM371.01-23.15L371.01-23.15Q371.11-25.5 372.91-25.5L372.91-25.5Q375.21-25.5 375.21-22.08 375.21-18.65 374.21-12.1L374.21-12.1Q374.81-6 374.81-3L374.81-3Q374.81 3.5 371.71 7.5 368.61 11.5 363.11 11.5L363.11 11.5Q360.11 11.5 357.31 10.23 354.51 8.95 354.51 7.68 354.51 6.4 355.66 6.4L355.66 6.4Q356.11 6.4 358.21 7.33 360.31 8.25 363.11 8.25L363.11 8.25Q367.11 8.25 369.41 5.28 371.71 2.3 371.71-2.5L371.71-2.5Q371.71-4.25 371.46-6.1L371.46-6.1Q370.31-3.4 367.86-1.45 365.41 0.5 362.76 0.5L362.76 0.5Q357.96 0.5 355.31-3.65L355.31-3.65Q353.06-7.4 353.06-12.4 353.06-17.4 356.41-21.45 359.76-25.5 364.76-25.5L364.76-25.5Q368.21-25.5 371.01-23.15ZM394.46-22.5L394.46-22.5Q391.16-22.5 388.94-20.03 386.71-17.55 386.01-14.25L386.01-14.25Q388.71-13.45 392.09-13.45 395.46-13.45 397.51-14.6 399.56-15.75 399.56-17.75 399.56-19.75 398.19-21.13 396.81-22.5 394.46-22.5ZM392.31-10.3L392.31-10.3Q389.71-10.3 385.96-11.05L385.96-11.05Q386.26-7.5 388.59-5 390.91-2.5 394.01-2.5 397.11-2.5 399.11-4.03 401.11-5.55 401.74-5.55 402.36-5.55 402.74-5.18 403.11-4.8 403.11-4.25L403.11-4.25Q403.11-2.85 400.24-1.05 397.36 0.75 394.01 0.75L394.01 0.75Q388.81 0.75 385.74-2.93 382.66-6.6 382.46-11.7L382.46-11.7Q379.81-12.55 379.81-14.3L379.81-14.3Q379.81-15.45 380.66-15.8L380.66-15.8Q380.96-15.9 381.44-15.9 381.91-15.9 382.76-15.45L382.76-15.45Q383.91-20 386.94-22.88 389.96-25.75 394.04-25.75 398.11-25.75 400.61-23.5 403.11-21.25 403.11-17.63 403.11-14 400.01-12.15 396.91-10.3 392.31-10.3ZM430.36-15.75L430.36-15.75 430.11-7.9 430.11-5.75Q430.21-3.7 431.11-3.3L431.11-3.3Q431.46-3.2 431.91-3.13 432.36-3.05 432.53-2.95 432.71-2.85 432.71-2.55L432.71-2.55Q432.71-1.25 431.88-0.38 431.06 0.5 429.96 0.5L429.96 0.5Q428.11 0.5 427.36-0.95 426.61-2.4 426.61-5.4L426.61-5.4 426.81-14.6Q426.81-18.05 425.33-20.13 423.86-22.2 421.31-22.2 418.76-22.2 416.38-19.38 414.01-16.55 413.01-12.9L413.01-12.9 413.16-2.05Q413.16 0.5 411.26 0.5L411.26 0.5Q408.96 0.5 408.96-2.93 408.96-6.35 409.96-12.9L409.96-12.9Q409.96-15 409.53-18.8 409.11-22.6 409.11-23.4 409.11-24.2 409.66-24.85 410.21-25.5 411.06-25.5 411.91-25.5 412.46-24.85 413.01-24.2 413.01-23.45 413.01-22.7 412.98-21.2 412.96-19.7 412.96-19.15L412.96-19.15Q416.61-25.5 421.96-25.5L421.96-25.5Q425.96-25.5 428.16-22.63 430.36-19.75 430.36-15.75ZM450.36-22.5L450.36-22.5Q447.06-22.5 444.83-20.03 442.61-17.55 441.9-14.25L441.9-14.25Q444.61-13.45 447.98-13.45 451.36-13.45 453.4-14.6 455.45-15.75 455.45-17.75 455.45-19.75 454.08-21.13 452.7-22.5 450.36-22.5ZM448.2-10.3L448.2-10.3Q445.61-10.3 441.86-11.05L441.86-11.05Q442.15-7.5 444.48-5 446.81-2.5 449.9-2.5 453-2.5 455-4.03 457-5.55 457.63-5.55 458.25-5.55 458.63-5.18 459-4.8 459-4.25L459-4.25Q459-2.85 456.13-1.05 453.25 0.75 449.9 0.75L449.9 0.75Q444.7 0.75 441.63-2.93 438.56-6.6 438.36-11.7L438.36-11.7Q435.7-12.55 435.7-14.3L435.7-14.3Q435.7-15.45 436.56-15.8L436.56-15.8Q436.86-15.9 437.33-15.9 437.81-15.9 438.65-15.45L438.65-15.45Q439.81-20 442.83-22.88 445.86-25.75 449.93-25.75 454-25.75 456.5-23.5 459-21.25 459-17.63 459-14 455.9-12.15 452.81-10.3 448.2-10.3ZM496.7-12.1L496.7-12.1Q496.7-8.45 497.22-6.03 497.75-3.6 498.55-3.3L498.55-3.3Q498.85-3.15 499.27-3.1 499.7-3.05 499.87-2.95 500.05-2.85 500.05-2.55L500.05-2.55Q500.05-1.15 499.3-0.33 498.55 0.5 497.12 0.5 495.7 0.5 494.9-1.33 494.1-3.15 494.1-6.1L494.1-6.1Q492.75-3.2 490.35-1.35 487.95 0.5 484.92 0.5 481.9 0.5 479.75-1.5L479.75-1.5Q475.75-5.2 475.75-11.95L475.75-11.95Q475.75-17.4 478.9-21.45 482.05-25.5 487-25.5L487-25.5Q490.75-25.5 493.5-22.95L493.5-22.95Q493.5-25.5 495.4-25.5L495.4-25.5Q497.7-25.5 497.7-22.08 497.7-18.65 496.7-12.1ZM493.8-11.65L493.8-11.65 493.55-19.35Q490.6-22.25 487.3-22.25 484-22.25 481.65-19.3 479.3-16.35 479.3-12.18 479.3-8 480.85-5.38 482.4-2.75 485.15-2.75 487.9-2.75 490.22-5.2 492.55-7.65 493.8-11.65ZM526.7-15.75L526.7-15.75 526.45-7.9 526.45-5.75Q526.55-3.7 527.45-3.3L527.45-3.3Q527.8-3.2 528.25-3.13 528.7-3.05 528.87-2.95 529.05-2.85 529.05-2.55L529.05-2.55Q529.05-1.25 528.22-0.38 527.4 0.5 526.3 0.5L526.3 0.5Q524.45 0.5 523.7-0.95 522.95-2.4 522.95-5.4L522.95-5.4 523.15-14.6Q523.15-18.05 521.67-20.13 520.2-22.2 517.65-22.2 515.1-22.2 512.72-19.38 510.35-16.55 509.35-12.9L509.35-12.9 509.5-2.05Q509.5 0.5 507.6 0.5L507.6 0.5Q505.3 0.5 505.3-2.93 505.3-6.35 506.3-12.9L506.3-12.9Q506.3-15 505.87-18.8 505.45-22.6 505.45-23.4 505.45-24.2 506-24.85 506.55-25.5 507.4-25.5 508.25-25.5 508.8-24.85 509.35-24.2 509.35-23.45 509.35-22.7 509.32-21.2 509.3-19.7 509.3-19.15L509.3-19.15Q512.95-25.5 518.3-25.5L518.3-25.5Q522.3-25.5 524.5-22.63 526.7-19.75 526.7-15.75ZM552.04-11.4L552.04-11.4 552.04-19.35Q549.09-22.25 544.94-22.25L544.94-22.25Q541.79-22.25 539.34-19.33 536.89-16.4 536.89-12.43 536.89-8.45 538.64-5.55L538.64-5.55Q540.39-2.75 543.39-2.75L543.39-2.75Q548.64-2.75 552.04-11.4ZM554.14-38L554.14-38Q556.59-38 556.59-33.95L556.59-33.95Q556.59-32.4 556.39-30.35L556.39-30.35 555.79-23.8Q555.24-17.7 555.14-16.45L555.14-16.45Q555.14-9.9 555.62-6.68 556.09-3.45 557.34-3.2L557.34-3.2Q558.64-3.2 558.64-2.45L558.64-2.45Q558.64-1.35 557.92-0.43 557.19 0.5 555.84 0.5L555.84 0.5Q553.04 0.5 552.39-6.2L552.39-6.2Q548.69 0.5 543.14 0.5L543.14 0.5Q539.84 0.5 537.54-1.6L537.54-1.6Q533.19-5.45 533.19-11.95L533.19-11.95Q533.19-17.4 536.49-21.45 539.79-25.5 544.94-25.5L544.94-25.5Q548.69-25.5 552.04-23.05L552.04-23.05Q552.14-32.35 552.14-34.4 552.14-36.45 552.62-37.23 553.09-38 554.14-38ZM588.09-22.25L588.09-22.25Q582.84-22.25 579.44-13.6L579.44-13.6 579.44-5.65Q582.39-2.75 586.54-2.75L586.54-2.75Q589.74-2.75 592.16-5.68 594.59-8.6 594.59-12.6 594.59-16.6 592.86-19.43 591.14-22.25 588.09-22.25ZM579.44-1.95L579.44-1.95Q579.34 1.85 579.34 4.38 579.34 6.9 579.29 8.1L579.29 8.1Q579.19 10.15 578.84 10.7L578.84 10.7Q578.39 11.5 577.31 11.5 576.24 11.5 575.59 10.65 574.94 9.8 574.94 7.85 574.94 5.9 575.09 4.15L575.09 4.15 575.69-1.8Q576.24-7.55 576.34-8.55L576.34-8.55 576.34-9.5 576.39-11.4 576.39-12.2Q576.39-14.3 575.94-18.35 575.49-22.4 575.49-23.3 575.49-24.2 576.04-24.85 576.59-25.5 577.44-25.5 578.29-25.5 578.84-24.85 579.39-24.2 579.39-23.45 579.39-22.7 579.36-21.15 579.34-19.6 579.34-19.05L579.34-19.05Q581.09-22.3 583.16-23.9 585.24-25.5 588.44-25.5 591.64-25.5 593.94-23.4L593.94-23.4Q598.29-19.55 598.29-13.05L598.29-13.05Q598.29-7.6 594.99-3.55 591.69 0.5 586.54 0.5L586.54 0.5Q582.79 0.5 579.44-1.95ZM608.09-11.45L608.09-11.45 608.24-2.05Q608.24 0.5 606.34 0.5L606.34 0.5Q604.04 0.5 604.04-2.93 604.04-6.35 605.04-12.9L605.04-12.9Q605.04-15 604.61-18.78 604.19-22.55 604.19-23.35 604.19-24.15 604.74-24.83 605.29-25.5 606.14-25.5 606.99-25.5 607.54-24.83 608.09-24.15 608.09-23.45 608.09-22.75 608.06-21.2 608.04-19.65 608.04-19.05L608.04-19.05Q608.99-21.55 611.14-23.55L611.14-23.55Q613.34-25.5 615.51-25.5 617.69-25.5 618.96-24.63 620.24-23.75 620.24-22.65 620.24-21.55 619.69-20.95 619.14-20.35 618.26-20.35 617.39-20.35 616.34-21.25L616.34-21.25Q615.39-22.2 614.74-22.2L614.74-22.2Q613.09-22.2 610.89-18.63 608.69-15.05 608.09-11.45ZM626.43-12.45Q626.43-8.3 628.73-5.4 631.03-2.5 634.51-2.5 637.98-2.5 640.41-5.43 642.83-8.35 642.83-12.5 642.83-16.65 640.51-19.58 638.18-22.5 634.76-22.5 631.33-22.5 628.83-19.55L628.83-19.55Q626.43-16.6 626.43-12.45ZM626.18-3.08Q622.88-6.9 622.88-12.45 622.88-18 626.23-21.88 629.58-25.75 634.68-25.75 639.78-25.75 643.08-21.93 646.38-18.1 646.38-12.53 646.38-6.95 643.01-3.1 639.63 0.75 634.56 0.75 629.48 0.75 626.18-3.08ZM661.63-21.85L661.63-21.85 657.48-21.95 657.38-10.1Q657.38-5.5 657.73-4.13 658.08-2.75 659.73-2.75L659.73-2.75Q660.53-2.75 661.63-3.28 662.73-3.8 662.98-3.8L662.98-3.8Q664.03-3.8 664.03-2.75 664.03-1.7 662.18-0.6 660.33 0.5 658.53 0.5L658.53 0.5Q654.18 0.5 654.18-5.9L654.18-5.9 654.13-21.95Q652.48-21.8 651.83-21.8L651.83-21.8Q649.33-21.8 649.33-23.45 649.33-25.1 651.83-25.1L651.83-25.1 654.03-25 653.93-30.6Q653.93-33.1 655.83-33.1 657.73-33.1 657.73-30.6L657.73-30.6 657.58-24.95 661.63-25.15Q664.13-25.15 664.13-23.45L664.13-23.45Q664.13-21.85 661.63-21.85ZM680.48-22.5L680.48-22.5Q677.18-22.5 674.95-20.03 672.73-17.55 672.03-14.25L672.03-14.25Q674.73-13.45 678.1-13.45 681.48-13.45 683.53-14.6 685.58-15.75 685.58-17.75 685.58-19.75 684.2-21.13 682.83-22.5 680.48-22.5ZM678.33-10.3L678.33-10.3Q675.73-10.3 671.98-11.05L671.98-11.05Q672.28-7.5 674.6-5 676.93-2.5 680.03-2.5 683.13-2.5 685.13-4.03 687.13-5.55 687.75-5.55 688.38-5.55 688.75-5.18 689.13-4.8 689.13-4.25L689.13-4.25Q689.13-2.85 686.25-1.05 683.38 0.75 680.03 0.75L680.03 0.75Q674.83 0.75 671.75-2.93 668.68-6.6 668.48-11.7L668.48-11.7Q665.83-12.55 665.83-14.3L665.83-14.3Q665.83-15.45 666.68-15.8L666.68-15.8Q666.98-15.9 667.45-15.9 667.93-15.9 668.78-15.45L668.78-15.45Q669.93-20 672.95-22.88 675.98-25.75 680.05-25.75 684.13-25.75 686.63-23.5 689.13-21.25 689.13-17.63 689.13-14 686.03-12.15 682.93-10.3 678.33-10.3ZM697.43-36.25L697.43-36.25Q699.48-36.25 699.48-33.85L699.48-33.85Q699.48-32.75 698.75-31.78 698.03-30.8 697.03-30.8L697.03-30.8Q694.93-30.8 694.93-33.35L694.93-33.35Q694.93-34.55 695.65-35.4 696.38-36.25 697.43-36.25ZM699.08-23L699.08-23 698.83-12.5 699.08-2Q699.08 0.5 697.18 0.5 695.28 0.5 695.28-2L695.28-2 695.53-12.5 695.28-23Q695.28-25.5 697.18-25.5 699.08-25.5 699.08-23ZM727.57-15.75L727.57-15.75 727.32-7.9 727.32-5.75Q727.42-3.7 728.32-3.3L728.32-3.3Q728.67-3.2 729.12-3.13 729.57-3.05 729.75-2.95 729.92-2.85 729.92-2.55L729.92-2.55Q729.92-1.25 729.1-0.38 728.27 0.5 727.17 0.5L727.17 0.5Q725.32 0.5 724.57-0.95 723.82-2.4 723.82-5.4L723.82-5.4 724.02-14.6Q724.02-18.05 722.55-20.13 721.07-22.2 718.52-22.2 715.97-22.2 713.6-19.38 711.22-16.55 710.22-12.9L710.22-12.9 710.37-2.05Q710.37 0.5 708.47 0.5L708.47 0.5Q706.17 0.5 706.17-2.93 706.17-6.35 707.17-12.9L707.17-12.9Q707.17-15 706.75-18.8 706.32-22.6 706.32-23.4 706.32-24.2 706.87-24.85 707.42-25.5 708.27-25.5 709.12-25.5 709.67-24.85 710.22-24.2 710.22-23.45 710.22-22.7 710.2-21.2 710.17-19.7 710.17-19.15L710.17-19.15Q713.82-25.5 719.17-25.5L719.17-25.5Q723.17-25.5 725.37-22.63 727.57-19.75 727.57-15.75ZM764.82-11.4L764.82-11.4 764.82-19.35Q761.87-22.25 757.72-22.25L757.72-22.25Q754.57-22.25 752.12-19.33 749.67-16.4 749.67-12.43 749.67-8.45 751.42-5.55L751.42-5.55Q753.17-2.75 756.17-2.75L756.17-2.75Q761.42-2.75 764.82-11.4ZM766.92-38L766.92-38Q769.37-38 769.37-33.95L769.37-33.95Q769.37-32.4 769.17-30.35L769.17-30.35 768.57-23.8Q768.02-17.7 767.92-16.45L767.92-16.45Q767.92-9.9 768.39-6.68 768.87-3.45 770.12-3.2L770.12-3.2Q771.42-3.2 771.42-2.45L771.42-2.45Q771.42-1.35 770.69-0.43 769.97 0.5 768.62 0.5L768.62 0.5Q765.82 0.5 765.17-6.2L765.17-6.2Q761.47 0.5 755.92 0.5L755.92 0.5Q752.62 0.5 750.32-1.6L750.32-1.6Q745.97-5.45 745.97-11.95L745.97-11.95Q745.97-17.4 749.27-21.45 752.57-25.5 757.72-25.5L757.72-25.5Q761.47-25.5 764.82-23.05L764.82-23.05Q764.92-32.35 764.92-34.4 764.92-36.45 765.39-37.23 765.87-38 766.92-38ZM796.37-12.1L796.37-12.1Q796.37-8.45 796.89-6.03 797.42-3.6 798.22-3.3L798.22-3.3Q798.52-3.15 798.94-3.1 799.37-3.05 799.54-2.95 799.72-2.85 799.72-2.55L799.72-2.55Q799.72-1.15 798.97-0.33 798.22 0.5 796.79 0.5 795.37 0.5 794.57-1.33 793.77-3.15 793.77-6.1L793.77-6.1Q792.42-3.2 790.02-1.35 787.62 0.5 784.59 0.5 781.57 0.5 779.42-1.5L779.42-1.5Q775.42-5.2 775.42-11.95L775.42-11.95Q775.42-17.4 778.57-21.45 781.72-25.5 786.67-25.5L786.67-25.5Q790.42-25.5 793.17-22.95L793.17-22.95Q793.17-25.5 795.07-25.5L795.07-25.5Q797.37-25.5 797.37-22.08 797.37-18.65 796.37-12.1ZM793.47-11.65L793.47-11.65 793.22-19.35Q790.27-22.25 786.97-22.25 783.67-22.25 781.32-19.3 778.97-16.35 778.97-12.18 778.97-8 780.52-5.38 782.07-2.75 784.82-2.75 787.57-2.75 789.89-5.2 792.22-7.65 793.47-11.65ZM814.86-21.85L814.86-21.85 810.71-21.95 810.61-10.1Q810.61-5.5 810.96-4.13 811.31-2.75 812.96-2.75L812.96-2.75Q813.76-2.75 814.86-3.28 815.96-3.8 816.21-3.8L816.21-3.8Q817.26-3.8 817.26-2.75 817.26-1.7 815.41-0.6 813.56 0.5 811.76 0.5L811.76 0.5Q807.41 0.5 807.41-5.9L807.41-5.9 807.36-21.95Q805.71-21.8 805.06-21.8L805.06-21.8Q802.56-21.8 802.56-23.45 802.56-25.1 805.06-25.1L805.06-25.1 807.26-25 807.16-30.6Q807.16-33.1 809.06-33.1 810.96-33.1 810.96-30.6L810.96-30.6 810.81-24.95 814.86-25.15Q817.36-25.15 817.36-23.45L817.36-23.45Q817.36-21.85 814.86-21.85ZM841.76-12.1L841.76-12.1Q841.76-8.45 842.29-6.03 842.81-3.6 843.61-3.3L843.61-3.3Q843.91-3.15 844.34-3.1 844.76-3.05 844.94-2.95 845.11-2.85 845.11-2.55L845.11-2.55Q845.11-1.15 844.36-0.33 843.61 0.5 842.19 0.5 840.76 0.5 839.96-1.33 839.16-3.15 839.16-6.1L839.16-6.1Q837.81-3.2 835.41-1.35 833.01 0.5 829.99 0.5 826.96 0.5 824.81-1.5L824.81-1.5Q820.81-5.2 820.81-11.95L820.81-11.95Q820.81-17.4 823.96-21.45 827.11-25.5 832.06-25.5L832.06-25.5Q835.81-25.5 838.56-22.95L838.56-22.95Q838.56-25.5 840.46-25.5L840.46-25.5Q842.76-25.5 842.76-22.08 842.76-18.65 841.76-12.1ZM838.86-11.65L838.86-11.65 838.61-19.35Q835.66-22.25 832.36-22.25 829.06-22.25 826.71-19.3 824.36-16.35 824.36-12.18 824.36-8 825.91-5.38 827.46-2.75 830.21-2.75 832.96-2.75 835.29-5.2 837.61-7.65 838.86-11.65ZM872.21-13.05L872.21-13.05Q872.21-7.6 869.06-3.55 865.91 0.5 860.96 0.5L860.96 0.5Q857.26 0.5 854.46-2.05L854.46-2.05Q854.46 0.5 852.56 0.5L852.56 0.5Q850.26 0.5 850.26-2.93 850.26-6.35 851.26-12.9L851.26-12.9Q851.26-16.3 850.81-25.73 850.36-35.15 850.36-35.9 850.36-36.65 850.88-37.35 851.41-38.05 851.98-38.05 852.56-38.05 853.06-37.8L853.06-37.8Q854.26-37.25 854.26-35.85L854.26-35.85Q854.26-35.65 854.26-35.5L854.26-35.5 854.26-19.7Q855.61-22.3 857.91-23.9 860.21-25.5 863.11-25.5 866.01-25.5 868.16-23.5L868.16-23.5Q872.21-19.8 872.21-13.05ZM854.16-13.35L854.16-13.35 854.41-5.65Q857.36-2.75 860.66-2.75 863.96-2.75 866.31-5.7 868.66-8.65 868.66-12.83 868.66-17 867.11-19.63 865.56-22.25 862.81-22.25 860.06-22.25 857.73-19.8 855.41-17.35 854.16-13.35ZM897.91-12.1L897.91-12.1Q897.91-8.45 898.43-6.03 898.96-3.6 899.76-3.3L899.76-3.3Q900.06-3.15 900.48-3.1 900.91-3.05 901.08-2.95 901.26-2.85 901.26-2.55L901.26-2.55Q901.26-1.15 900.51-0.33 899.76 0.5 898.33 0.5 896.91 0.5 896.11-1.33 895.31-3.15 895.31-6.1L895.31-6.1Q893.96-3.2 891.56-1.35 889.16 0.5 886.13 0.5 883.11 0.5 880.96-1.5L880.96-1.5Q876.96-5.2 876.96-11.95L876.96-11.95Q876.96-17.4 880.11-21.45 883.26-25.5 888.21-25.5L888.21-25.5Q891.96-25.5 894.71-22.95L894.71-22.95Q894.71-25.5 896.61-25.5L896.61-25.5Q898.91-25.5 898.91-22.08 898.91-18.65 897.91-12.1ZM895.01-11.65L895.01-11.65 894.76-19.35Q891.81-22.25 888.51-22.25 885.21-22.25 882.86-19.3 880.51-16.35 880.51-12.18 880.51-8 882.06-5.38 883.61-2.75 886.36-2.75 889.11-2.75 891.43-5.2 893.76-7.65 895.01-11.65ZM923.9-7.2L923.9-7.2Q923.9-3.85 921.13-1.68 918.35 0.5 914.5 0.5 910.65 0.5 907.75-1.25L907.75-1.25Q904.9-3.05 904.9-4.8L904.9-4.8Q904.9-5.95 905.85-6.35 906.8-6.75 907.3-6.25L907.3-6.25Q907.4-6.2 909.3-4.3L909.3-4.3Q909.85-3.8 911.35-3.28 912.85-2.75 914-2.75L914-2.75Q916.8-2.75 918.55-3.9 920.3-5.05 920.3-7.15L920.3-7.15Q920.3-9.8 915.3-11.5L915.3-11.5Q909.75-13.4 908.2-14.75L908.2-14.75Q907.45-15.4 906.83-16.48 906.2-17.55 906.2-18.75L906.2-18.75Q906.2-21.45 908.68-23.48 911.15-25.5 914.6-25.5 918.05-25.5 920.2-24.33 922.35-23.15 922.35-21.7L922.35-21.7Q922.35-20.05 920.6-20.05L920.6-20.05Q919.9-20.05 919.1-20.6L919.1-20.6Q916.7-22.25 914.48-22.25 912.25-22.25 911.1-21.25L911.1-21.25Q909.75-20.3 909.75-19.03 909.75-17.75 911.05-16.95 912.35-16.15 915.3-14.98 918.25-13.8 918.9-13.5L918.9-13.5Q921.1-12.55 922.5-10.9 923.9-9.25 923.9-7.2ZM941.7-22.5L941.7-22.5Q938.4-22.5 936.18-20.03 933.95-17.55 933.25-14.25L933.25-14.25Q935.95-13.45 939.33-13.45 942.7-13.45 944.75-14.6 946.8-15.75 946.8-17.75 946.8-19.75 945.43-21.13 944.05-22.5 941.7-22.5ZM939.55-10.3L939.55-10.3Q936.95-10.3 933.2-11.05L933.2-11.05Q933.5-7.5 935.83-5 938.15-2.5 941.25-2.5 944.35-2.5 946.35-4.03 948.35-5.55 948.98-5.55 949.6-5.55 949.98-5.18 950.35-4.8 950.35-4.25L950.35-4.25Q950.35-2.85 947.48-1.05 944.6 0.75 941.25 0.75L941.25 0.75Q936.05 0.75 932.98-2.93 929.9-6.6 929.7-11.7L929.7-11.7Q927.05-12.55 927.05-14.3L927.05-14.3Q927.05-15.45 927.9-15.8L927.9-15.8Q928.2-15.9 928.68-15.9 929.15-15.9 930-15.45L930-15.45Q931.15-20 934.18-22.88 937.2-25.75 941.28-25.75 945.35-25.75 947.85-23.5 950.35-21.25 950.35-17.63 950.35-14 947.25-12.15 944.15-10.3 939.55-10.3ZM973.6-7.2L973.6-7.2Q973.6-3.85 970.82-1.68 968.05 0.5 964.2 0.5 960.35 0.5 957.45-1.25L957.45-1.25Q954.6-3.05 954.6-4.8L954.6-4.8Q954.6-5.95 955.55-6.35 956.5-6.75 957-6.25L957-6.25Q957.1-6.2 959-4.3L959-4.3Q959.55-3.8 961.05-3.28 962.55-2.75 963.7-2.75L963.7-2.75Q966.5-2.75 968.25-3.9 970-5.05 970-7.15L970-7.15Q970-9.8 965-11.5L965-11.5Q959.45-13.4 957.9-14.75L957.9-14.75Q957.15-15.4 956.52-16.48 955.9-17.55 955.9-18.75L955.9-18.75Q955.9-21.45 958.37-23.48 960.85-25.5 964.3-25.5 967.75-25.5 969.9-24.33 972.05-23.15 972.05-21.7L972.05-21.7Q972.05-20.05 970.3-20.05L970.3-20.05Q969.6-20.05 968.8-20.6L968.8-20.6Q966.4-22.25 964.17-22.25 961.95-22.25 960.8-21.25L960.8-21.25Q959.45-20.3 959.45-19.03 959.45-17.75 960.75-16.95 962.05-16.15 965-14.98 967.95-13.8 968.6-13.5L968.6-13.5Q970.8-12.55 972.2-10.9 973.6-9.25 973.6-7.2ZM979.3-1.98Q979.3-3.15 980.02-4.08 980.75-5 981.77-5 982.8-5 983.35-4.28 983.9-3.55 983.9-2.33 983.9-1.1 983.17-0.18 982.45 0.75 981.45 0.75 980.45 0.75 979.87-0.03 979.3-0.8 979.3-1.98ZM983.25-23.4L983.25-23.4 983.4-12.8Q983.4-10.3 981.6-10.3 979.8-10.3 979.8-12.8L979.8-12.8 979.95-23.4Q979.95-26.8 979.77-31 979.6-35.2 979.6-35.5L979.6-35.5Q979.6-38 981.6-38 983.6-38 983.6-35.5L983.6-35.5Q983.6-34.7 983.42-30.5 983.25-26.3 983.25-23.4Z" opacity="1" transform="matrix(1,0,0,1,0,0)" fill="#636365" class="slogan-text-1" data-fill-palette-color="secondary" id="text-1"></path></svg></g></svg></g></svg></g></svg></g><g><svg viewBox="0 0 159.31958516846544 150.42212430104547" height="150.42212430104547" width="159.31958516846544"><g><svg xmlns="http://www.w3.org/2000/svg" xml:space="preserve" viewBox="15.3410005569458 17.243318557739258 69.3475341796875 65.4747085571289" x="0" y="0" height="150.42212430104547" width="159.31958516846544" class="icon-icon-0" data-fill-palette-color="accent" id="icon-0"><path d="M29.618 77.493h-4.11a2.73 2.73 0 0 1-2.736-2.625l-0.207-5.02a0.5 0.5 0 1 0-0.999 0.041l0.207 5.02a3.73 3.73 0 0 0 3.734 3.584h4.11a0.5 0.5 0 1 0 0-1M33.931 77.493h-0.688a0.5 0.5 0 1 0 0 1h0.688a0.5 0.5 0 1 0 0-1" fill="#636365" data-fill-palette-color="accent"></path><path d="M15.342 33.093l1.757 42.768a7.134 7.134 0 0 0 7.145 6.857h37.193a7.133 7.133 0 0 0 7.145-6.857l1.149-27.947c6.85-0.176 12.898-5.008 14.521-11.724a15.24 15.24 0 0 0-1.819-11.6 15.24 15.24 0 0 0-9.489-6.916c-8.226-1.986-16.527 3.086-18.515 11.308-0.041 0.172-0.061 0.346-0.097 0.519-3.6-0.185-7.455-0.283-11.491-0.283-7.113 0-13.806 0.297-18.845 0.836-7.993 0.855-8.655 1.905-8.655 2.998l0.001 0.036z m46.344 2.957c2.994-0.32 4.959-0.668 6.246-1.035l-3.973 20.029c-1.993 10.048-10.875 17.341-21.118 17.341s-19.126-7.293-21.119-17.34l-3.972-20.03c1.287 0.367 3.252 0.715 6.246 1.035 5.04 0.538 11.732 0.835 18.845 0.835s13.805-0.297 18.845-0.835m1.525-12.541l5.074 8.307-9.462-2.286a10.86 10.86 0 0 1 4.388-6.021m15.207 2.948L70.11 31.53l2.287-9.462a10.86 10.86 0 0 1 6.02 4.389m-8.159 8.593l4.37 7.155a10.9 10.9 0 0 1-4.718 1.325z m5.222 6.631l-5.084-8.326 9.464 2.288a10.93 10.93 0 0 1-4.38 6.038m4.612-7.01l-9.461-2.287 8.307-5.074a10.86 10.86 0 0 1 1.154 7.36m-10.955-3.376l-5.073-8.307a10.86 10.86 0 0 1 7.36-1.155z m-10.546-0.792l9.59 2.317c-1.078 0.513-4.426 1.095-9.653 1.511a10.8 10.8 0 0 1 0.063-3.828m7.992 45.276a5.14 5.14 0 0 1-5.147 4.94H24.244a5.14 5.14 0 0 1-5.147-4.94L17.87 45.9l1.89 9.533c2.178 10.982 11.886 18.952 23.08 18.952 11.196 0 20.902-7.97 23.08-18.952l1.892-9.534z m-10.21-46.327c1.728-7.15 8.95-11.56 16.1-9.833a13.25 13.25 0 0 1 8.252 6.014 13.25 13.25 0 0 1 1.582 10.087c-1.401 5.797-6.63 9.958-12.495 10.187l0.057-1.375a11.92 11.92 0 0 0 11.101-9.135c0.751-3.106 0.247-6.32-1.418-9.047a11.89 11.89 0 0 0-7.401-5.394 11.88 11.88 0 0 0-9.047 1.417l-0.001 0.001-0.001 0.001a11.89 11.89 0 0 0-5.393 7.4 11.8 11.8 0 0 0-0.182 4.632q-0.67 0.047-1.376 0.092a13.2 13.2 0 0 1 0.222-5.047M42.84 31.218c3.881 0 7.727 0.097 11.216 0.272a15 15 0 0 0 0.095 3.122c-3.292 0.169-7.072 0.273-11.311 0.273-13.015 0-21.866-0.966-24.734-1.833 2.868-0.868 11.719-1.834 24.734-1.834" fill="#636365" data-fill-palette-color="accent"></path><path d="M28.703 44.254c-5.57 0.668-6.688 1.517-6.688 2.673q-0.002 0.216 0.06 0.42l1.17 6.552c1.7 9.504 9.941 16.403 19.596 16.403s17.895-6.899 19.595-16.403l1.17-6.552q0.062-0.204 0.06-0.42c0-1.156-1.119-2.005-6.687-2.673-3.784-0.453-8.804-0.702-14.138-0.702s-10.355 0.25-14.138 0.702m14.138 24.048a17.89 17.89 0 0 1-17.627-14.755l-0.843-4.718c1 0.282 2.392 0.538 4.332 0.77 3.783 0.453 8.804 0.703 14.138 0.703s10.354-0.25 14.138-0.703c1.94-0.232 3.33-0.488 4.331-0.77l-0.843 4.718A17.89 17.89 0 0 1 42.84 68.302m17.92-21.375c-2.49 0.67-8.883 1.375-17.92 1.375s-15.43-0.705-17.922-1.375c2.491-0.67 8.884-1.375 17.922-1.375s15.43 0.704 17.92 1.375" fill="#636365" data-fill-palette-color="accent"></path></svg></g></svg></g></svg></g><defs></defs></svg>